<?xml version="1.0" encoding="utf-8"?>
<!-- Generator: Adobe Illustrator 22.1.0, SVG Export Plug-In . SVG Version: 6.00 Build 0)  -->
<svg version="1.1" id="Logo" xmlns="http://www.w3.org/2000/svg" xmlns:xlink="http://www.w3.org/1999/xlink" x="0px" y="0px"
	 viewBox="0 0 381.8 409" style="enable-background:new 0 0 381.8 409;" xml:space="preserve">
<style type="text/css">
	.st0{fill:#FFFFFF;}
</style>
<path class="st0" d="M381.8,146.5c0.1,55.5-42,102-97.2,107.5l-65.6-71.5h53.2c20.2,0,36.5-16.1,36.5-36s-16.3-36-36.5-36H153
	l-66.1-72h186.9c59.6,0,108,48.2,108,107.8C381.8,146.4,381.8,146.4,381.8,146.5z"/>
<polygon class="st0" points="334.4,339 273.4,339 0,39 61,39 "/>
<polygon class="st0" points="198.1,339 0.3,339 0.3,122 "/>
<line class="st0" x1="352.5" y1="338.6" x2="352.4" y2="338.5"/>
<line class="st0" x1="291.5" y1="338.6" x2="291.4" y2="338.5"/>
</svg>
